<svg width="240" height="25" viewBox="0 0 115 13" fill="none" xmlns="http://www.w3.org/2000/svg">
<path d="M0.825639 12V1.09091H3.46236V5.46946H7.76101V1.09091H10.3924V12H7.76101V7.61612H3.46236V12H0.825639ZM14.4061 12H11.5723L15.253 1.09091H18.7633L22.4441 12H19.6103L17.0481 3.83949H16.9629L14.4061 12ZM14.0279 7.70668H19.9512V9.70952H14.0279V7.70668ZM23.6186 12V1.09091H28.125C28.9418 1.09091 29.6467 1.23828 30.2397 1.53303C30.8363 1.82422 31.2962 2.24325 31.6193 2.79013C31.9425 3.33345 32.104 3.97798 32.104 4.72372C32.104 5.48011 31.9389 6.12287 31.6087 6.65199C31.2784 7.17756 30.8097 7.57884 30.2024 7.85582C29.5952 8.12926 28.8761 8.26598 28.0451 8.26598H25.1953V6.18857H27.555C27.9528 6.18857 28.2848 6.13707 28.5511 6.03409C28.821 5.92756 29.0252 5.76776 29.1637 5.55469C29.3022 5.33807 29.3714 5.06108 29.3714 4.72372C29.3714 4.38636 29.3022 4.1076 29.1637 3.88743C29.0252 3.66371 28.821 3.4968 28.5511 3.38672C28.2813 3.27308 27.9492 3.21626 27.555 3.21626H26.2553V12H23.6186ZM29.7603 7.0142L32.4769 12H29.6005L26.9371 7.0142H29.7603ZM33.5502 12V1.09091H38.0566C38.8734 1.09091 39.5783 1.23828 40.1713 1.53303C40.7679 1.82422 41.2278 2.24325 41.551 2.79013C41.8741 3.33345 42.0357 3.97798 42.0357 4.72372C42.0357 5.48011 41.8706 6.12287 41.5403 6.65199C41.21 7.17756 40.7413 7.57884 40.1341 7.85582C39.5268 8.12926 38.8077 8.26598 37.9767 8.26598H35.127V6.18857H37.4867C37.8844 6.18857 38.2164 6.13707 38.4828 6.03409C38.7527 5.92756 38.9569 5.76776 39.0953 5.55469C39.2338 5.33807 39.3031 5.06108 39.3031 4.72372C39.3031 4.38636 39.2338 4.1076 39.0953 3.88743C38.9569 3.66371 38.7527 3.4968 38.4828 3.38672C38.2129 3.27308 37.8809 3.21626 37.4867 3.21626H36.187V12H33.5502ZM39.6919 7.0142L42.4086 12H39.5321L36.8688 7.0142H39.6919ZM42.4552 1.09091H45.4008L47.7073 5.65589H47.8032L50.1096 1.09091H53.0553L49.0656 8.35653V12H46.4449V8.35653L42.4552 1.09091ZM63.2799 4.36151C63.2444 3.97088 63.0864 3.66726 62.8058 3.45064C62.5289 3.23047 62.1329 3.12038 61.618 3.12038C61.2771 3.12038 60.993 3.16477 60.7657 3.25355C60.5384 3.34233 60.368 3.46484 60.2544 3.62109C60.1407 3.77379 60.0821 3.94957 60.0786 4.14844C60.0715 4.31179 60.1034 4.45561 60.1744 4.5799C60.249 4.70419 60.3556 4.81428 60.4941 4.91016C60.6361 5.00249 60.8066 5.08416 61.0054 5.15518C61.2043 5.22621 61.428 5.28835 61.6766 5.34162L62.6141 5.55469C63.1539 5.67188 63.6297 5.82812 64.0416 6.02344C64.4571 6.21875 64.8051 6.45135 65.0857 6.72124C65.3698 6.99112 65.5846 7.30185 65.7302 7.65341C65.8758 8.00497 65.9504 8.39915 65.9539 8.83594C65.9504 9.52486 65.7764 10.1161 65.4319 10.6097C65.0874 11.1033 64.5921 11.4815 63.9458 11.7443C63.303 12.0071 62.5271 12.1385 61.618 12.1385C60.7053 12.1385 59.9099 12.0018 59.2316 11.7283C58.5534 11.4549 58.026 11.0394 57.6496 10.4819C57.2732 9.92436 57.0796 9.21946 57.069 8.36719H59.5938C59.6151 8.71875 59.7093 9.01172 59.8762 9.24609C60.0431 9.48047 60.2721 9.65803 60.5633 9.77876C60.858 9.8995 61.199 9.95987 61.586 9.95987C61.9411 9.95987 62.243 9.91193 62.4916 9.81605C62.7437 9.72017 62.9372 9.587 63.0722 9.41655C63.2071 9.24609 63.2764 9.05078 63.2799 8.83061C63.2764 8.62464 63.2124 8.44886 63.0882 8.30327C62.9639 8.15412 62.7721 8.02628 62.5129 7.91974C62.2572 7.80966 61.9305 7.70845 61.5328 7.61612L60.3928 7.34979C59.4482 7.13317 58.7043 6.78338 58.161 6.30043C57.6176 5.81392 57.3477 5.15696 57.3513 4.32955C57.3477 3.65483 57.5289 3.06357 57.8946 2.55575C58.2604 2.04794 58.7664 1.65199 59.4127 1.3679C60.059 1.08381 60.7959 0.941761 61.6233 0.941761C62.4685 0.941761 63.2018 1.08558 63.8232 1.37322C64.4482 1.65732 64.933 2.05682 65.2774 2.57173C65.6219 3.08665 65.7977 3.68324 65.8048 4.36151H63.2799ZM66.9287 3.23224V1.09091H76.1492V3.23224H72.8414V12H70.2419V3.23224H66.9287ZM76.8936 1.09091H79.8393L82.1458 5.65589H82.2417L84.5481 1.09091H87.4938L83.5041 8.35653V12H80.8833V8.35653L76.8936 1.09091ZM88.5991 12V1.09091H91.2358V9.85866H95.7741V12H88.5991ZM97.1391 12V1.09091H104.746V3.23224H99.7758V5.46946H104.357V7.61612H99.7758V9.85866H104.746V12H97.1391ZM112.294 4.36151C112.258 3.97088 112.1 3.66726 111.82 3.45064C111.543 3.23047 111.147 3.12038 110.632 3.12038C110.291 3.12038 110.007 3.16477 109.779 3.25355C109.552 3.34233 109.382 3.46484 109.268 3.62109C109.154 3.77379 109.096 3.94957 109.092 4.14844C109.085 4.31179 109.117 4.45561 109.188 4.5799C109.263 4.70419 109.369 4.81428 109.508 4.91016C109.65 5.00249 109.82 5.08416 110.019 5.15518C110.218 5.22621 110.442 5.28835 110.69 5.34162L111.628 5.55469C112.168 5.67188 112.643 5.82812 113.055 6.02344C113.471 6.21875 113.819 6.45135 114.099 6.72124C114.383 6.99112 114.598 7.30185 114.744 7.65341C114.889 8.00497 114.964 8.39915 114.968 8.83594C114.964 9.52486 114.79 10.1161 114.446 10.6097C114.101 11.1033 113.606 11.4815 112.959 11.7443C112.317 12.0071 111.541 12.1385 110.632 12.1385C109.719 12.1385 108.924 12.0018 108.245 11.7283C107.567 11.4549 107.04 11.0394 106.663 10.4819C106.287 9.92436 106.093 9.21946 106.083 8.36719H108.608C108.629 8.71875 108.723 9.01172 108.89 9.24609C109.057 9.48047 109.286 9.65803 109.577 9.77876C109.872 9.8995 110.213 9.95987 110.6 9.95987C110.955 9.95987 111.257 9.91193 111.505 9.81605C111.757 9.72017 111.951 9.587 112.086 9.41655C112.221 9.24609 112.29 9.05078 112.294 8.83061C112.29 8.62464 112.226 8.44886 112.102 8.30327C111.978 8.15412 111.786 8.02628 111.527 7.91974C111.271 7.80966 110.944 7.70845 110.546 7.61612L109.407 7.34979C108.462 7.13317 107.718 6.78338 107.175 6.30043C106.631 5.81392 106.361 5.15696 106.365 4.32955C106.361 3.65483 106.543 3.06357 106.908 2.55575C107.274 2.04794 107.78 1.65199 108.426 1.3679C109.073 1.08381 109.81 0.941761 110.637 0.941761C111.482 0.941761 112.215 1.08558 112.837 1.37322C113.462 1.65732 113.947 2.05682 114.291 2.57173C114.636 3.08665 114.811 3.68324 114.818 4.36151H112.294Z" fill="white"/>
</svg>
